<mxfile host="app.diagrams.net" modified="2022-07-11T08:33:13.936Z" agent="5.0 (Windows NT 10.0; Win64; x64) AppleWebKit/537.36 (KHTML, like Gecko) Chrome/103.0.5060.114 Safari/537.36" etag="0l0JlUJ24rKRaUtLE66e" version="20.0.4" type="github">
  <diagram id="-AXex7JFn0oujDa0BoU2" name="Page-1">
    <mxGraphModel dx="2234" dy="1349" grid="1" gridSize="10" guides="1" tooltips="1" connect="1" arrows="1" fold="1" page="1" pageScale="1" pageWidth="2336" pageHeight="1654" background="#283618" math="0" shadow="0">
      <root>
        <mxCell id="0" />
        <mxCell id="1" parent="0" />
        <mxCell id="dm8Ctu_rhWURjPSK8A-L-54" value="" style="rounded=0;whiteSpace=wrap;html=1;sketch=0;fontSize=35;fillColor=none;fontColor=#FEFAE0;strokeColor=#FFFFFF;strokeWidth=5;dashed=1;dashPattern=1 2;" parent="1" vertex="1">
          <mxGeometry x="1928" y="443" width="290" height="450" as="geometry" />
        </mxCell>
        <mxCell id="dm8Ctu_rhWURjPSK8A-L-52" value="" style="rounded=0;whiteSpace=wrap;html=1;sketch=0;fontSize=35;fillColor=none;fontColor=#FEFAE0;strokeColor=#FFFFFF;strokeWidth=5;dashed=1;dashPattern=1 2;" parent="1" vertex="1">
          <mxGeometry x="1098" y="593" width="720" height="580" as="geometry" />
        </mxCell>
        <mxCell id="dm8Ctu_rhWURjPSK8A-L-15" style="edgeStyle=orthogonalEdgeStyle;curved=0;rounded=1;sketch=0;orthogonalLoop=1;jettySize=auto;html=1;entryX=0.5;entryY=0;entryDx=0;entryDy=0;fontSize=35;fontColor=#FEFAE0;strokeColor=#DDA15E;strokeWidth=5;labelBackgroundColor=#283618;" parent="1" source="dm8Ctu_rhWURjPSK8A-L-1" target="dm8Ctu_rhWURjPSK8A-L-4" edge="1">
          <mxGeometry relative="1" as="geometry" />
        </mxCell>
        <mxCell id="dm8Ctu_rhWURjPSK8A-L-1" value="" style="rounded=1;whiteSpace=wrap;html=1;sketch=0;fontColor=#FEFAE0;strokeColor=#DDA15E;fillColor=#BC6C25;" parent="1" vertex="1">
          <mxGeometry x="1995.5" y="478" width="165" height="70" as="geometry" />
        </mxCell>
        <mxCell id="dm8Ctu_rhWURjPSK8A-L-14" style="edgeStyle=orthogonalEdgeStyle;curved=0;rounded=1;sketch=0;orthogonalLoop=1;jettySize=auto;html=1;fontSize=35;fontColor=#FEFAE0;strokeColor=#DDA15E;strokeWidth=5;labelBackgroundColor=#283618;" parent="1" source="dm8Ctu_rhWURjPSK8A-L-2" target="dm8Ctu_rhWURjPSK8A-L-1" edge="1">
          <mxGeometry relative="1" as="geometry" />
        </mxCell>
        <mxCell id="dm8Ctu_rhWURjPSK8A-L-2" value="&lt;font style=&quot;font-size: 45px;&quot;&gt;COIL&lt;/font&gt;" style="text;html=1;resizable=0;autosize=1;align=center;verticalAlign=middle;points=[];fillColor=none;strokeColor=none;rounded=0;sketch=0;fontColor=#FEFAE0;fontStyle=1;fontSize=28;" parent="1" vertex="1">
          <mxGeometry x="2013" y="282" width="130" height="70" as="geometry" />
        </mxCell>
        <mxCell id="dm8Ctu_rhWURjPSK8A-L-3" value="&lt;b&gt;&lt;i&gt;BLANKING&lt;/i&gt;&lt;/b&gt;" style="text;html=1;resizable=0;autosize=1;align=center;verticalAlign=middle;points=[];fillColor=none;strokeColor=none;rounded=0;sketch=0;fontSize=28;fontColor=#FEFAE0;" parent="1" vertex="1">
          <mxGeometry x="1993" y="488" width="170" height="50" as="geometry" />
        </mxCell>
        <mxCell id="dm8Ctu_rhWURjPSK8A-L-16" style="edgeStyle=orthogonalEdgeStyle;curved=0;rounded=1;sketch=0;orthogonalLoop=1;jettySize=auto;html=1;entryX=0.5;entryY=0;entryDx=0;entryDy=0;fontSize=35;fontColor=#FEFAE0;strokeColor=#DDA15E;strokeWidth=5;labelBackgroundColor=#283618;" parent="1" source="dm8Ctu_rhWURjPSK8A-L-4" target="dm8Ctu_rhWURjPSK8A-L-6" edge="1">
          <mxGeometry relative="1" as="geometry" />
        </mxCell>
        <mxCell id="dm8Ctu_rhWURjPSK8A-L-4" value="" style="rounded=1;whiteSpace=wrap;html=1;sketch=0;fontColor=#FEFAE0;strokeColor=#DDA15E;fillColor=#BC6C25;" parent="1" vertex="1">
          <mxGeometry x="1998" y="628" width="160" height="70" as="geometry" />
        </mxCell>
        <mxCell id="dm8Ctu_rhWURjPSK8A-L-5" value="&lt;b&gt;&lt;i&gt;PRESS&lt;/i&gt;&lt;/b&gt;" style="text;html=1;resizable=0;autosize=1;align=center;verticalAlign=middle;points=[];fillColor=none;strokeColor=none;rounded=0;sketch=0;fontSize=28;fontColor=#FEFAE0;" parent="1" vertex="1">
          <mxGeometry x="2018" y="638" width="120" height="50" as="geometry" />
        </mxCell>
        <mxCell id="dm8Ctu_rhWURjPSK8A-L-18" style="edgeStyle=orthogonalEdgeStyle;curved=0;rounded=1;sketch=0;orthogonalLoop=1;jettySize=auto;html=1;fontSize=35;fontColor=#FEFAE0;strokeColor=#DDA15E;strokeWidth=5;labelBackgroundColor=#283618;" parent="1" source="dm8Ctu_rhWURjPSK8A-L-6" edge="1">
          <mxGeometry relative="1" as="geometry">
            <mxPoint x="1818" y="803" as="targetPoint" />
          </mxGeometry>
        </mxCell>
        <mxCell id="dm8Ctu_rhWURjPSK8A-L-6" value="" style="rounded=1;whiteSpace=wrap;html=1;sketch=0;fontColor=#FEFAE0;strokeColor=#DDA15E;fillColor=#BC6C25;" parent="1" vertex="1">
          <mxGeometry x="1998" y="768" width="160" height="70" as="geometry" />
        </mxCell>
        <mxCell id="dm8Ctu_rhWURjPSK8A-L-7" value="&lt;b&gt;&lt;i&gt;STOCK&lt;/i&gt;&lt;/b&gt;" style="text;html=1;resizable=0;autosize=1;align=center;verticalAlign=middle;points=[];fillColor=none;strokeColor=none;rounded=0;sketch=0;fontSize=28;fontColor=#FEFAE0;" parent="1" vertex="1">
          <mxGeometry x="2018" y="778" width="120" height="50" as="geometry" />
        </mxCell>
        <mxCell id="dm8Ctu_rhWURjPSK8A-L-17" value="" style="rounded=0;whiteSpace=wrap;html=1;sketch=0;fontSize=35;fillColor=none;fontColor=#FEFAE0;strokeColor=#DDA15E;strokeWidth=5;" parent="1" vertex="1">
          <mxGeometry x="1153" y="643" width="480" height="320" as="geometry" />
        </mxCell>
        <mxCell id="dm8Ctu_rhWURjPSK8A-L-31" value="" style="rounded=1;whiteSpace=wrap;html=1;sketch=0;fontSize=35;strokeColor=#DDA15E;strokeWidth=1;fillColor=#BC6C25;rotation=90;fontColor=#FEFAE0;" parent="1" vertex="1">
          <mxGeometry x="1574" y="923" width="200" height="60" as="geometry" />
        </mxCell>
        <mxCell id="dm8Ctu_rhWURjPSK8A-L-40" style="edgeStyle=orthogonalEdgeStyle;curved=0;rounded=1;sketch=0;orthogonalLoop=1;jettySize=auto;html=1;entryX=1;entryY=0.5;entryDx=0;entryDy=0;fontFamily=Tahoma;fontSize=20;fontColor=#FEFAE0;strokeWidth=3;exitX=1;exitY=0.5;exitDx=0;exitDy=0;strokeColor=#DDA15E;labelBackgroundColor=#283618;" parent="1" source="dm8Ctu_rhWURjPSK8A-L-31" target="dm8Ctu_rhWURjPSK8A-L-32" edge="1">
          <mxGeometry relative="1" as="geometry" />
        </mxCell>
        <mxCell id="dm8Ctu_rhWURjPSK8A-L-32" value="" style="rounded=1;whiteSpace=wrap;html=1;sketch=0;fontSize=35;strokeColor=#DDA15E;strokeWidth=1;fillColor=#BC6C25;rotation=90;fontColor=#FEFAE0;" parent="1" vertex="1">
          <mxGeometry x="1618.82" y="887.82" width="254.38" height="64" as="geometry" />
        </mxCell>
        <mxCell id="dm8Ctu_rhWURjPSK8A-L-33" value="&lt;font style=&quot;font-size: 27px;&quot;&gt;BMR&lt;/font&gt;" style="text;html=1;resizable=0;autosize=1;align=center;verticalAlign=middle;points=[];fillColor=none;strokeColor=none;rounded=0;sketch=0;fontSize=20;fontColor=#FEFAE0;horizontal=0;fontStyle=1;fontFamily=Tahoma;" parent="1" vertex="1">
          <mxGeometry x="1644" y="868" width="60" height="80" as="geometry" />
        </mxCell>
        <mxCell id="dm8Ctu_rhWURjPSK8A-L-34" value="&lt;font face=&quot;Tahoma&quot; style=&quot;font-size: 27px;&quot;&gt;FLOOR MAIN&lt;/font&gt;" style="text;html=1;resizable=0;autosize=1;align=center;verticalAlign=middle;points=[];fillColor=none;strokeColor=none;rounded=0;sketch=0;fontSize=27;fontColor=#FEFAE0;horizontal=0;fontStyle=1" parent="1" vertex="1">
          <mxGeometry x="1716.01" y="853" width="60" height="190" as="geometry" />
        </mxCell>
        <mxCell id="dm8Ctu_rhWURjPSK8A-L-38" value="" style="endArrow=classic;html=1;rounded=1;sketch=0;fontFamily=Tahoma;fontSize=20;fontColor=#FEFAE0;strokeColor=#FFFF66;strokeWidth=3;curved=0;labelBackgroundColor=#283618;" parent="1" edge="1">
          <mxGeometry width="50" height="50" relative="1" as="geometry">
            <mxPoint x="1673.63" y="953" as="sourcePoint" />
            <mxPoint x="1673.63" y="1033" as="targetPoint" />
          </mxGeometry>
        </mxCell>
        <mxCell id="dm8Ctu_rhWURjPSK8A-L-41" value="" style="endArrow=classic;html=1;rounded=1;sketch=0;fontFamily=Tahoma;fontSize=20;fontColor=#FEFAE0;strokeColor=#FFFF66;strokeWidth=3;curved=0;exitX=0.516;exitY=1.021;exitDx=0;exitDy=0;exitPerimeter=0;labelBackgroundColor=#283618;" parent="1" edge="1">
          <mxGeometry width="50" height="50" relative="1" as="geometry">
            <mxPoint x="1745.51" y="850.06" as="sourcePoint" />
            <mxPoint x="1746.3099999999997" y="803" as="targetPoint" />
            <Array as="points">
              <mxPoint x="1745.51" y="846.06" />
            </Array>
          </mxGeometry>
        </mxCell>
        <mxCell id="dm8Ctu_rhWURjPSK8A-L-45" style="edgeStyle=orthogonalEdgeStyle;curved=0;rounded=1;sketch=0;orthogonalLoop=1;jettySize=auto;html=1;entryX=0;entryY=0.5;entryDx=0;entryDy=0;fontFamily=Tahoma;fontSize=20;fontColor=#FEFAE0;strokeColor=#DDA15E;strokeWidth=3;exitX=0;exitY=0.5;exitDx=0;exitDy=0;labelBackgroundColor=#283618;" parent="1" source="dm8Ctu_rhWURjPSK8A-L-42" target="dm8Ctu_rhWURjPSK8A-L-31" edge="1">
          <mxGeometry relative="1" as="geometry" />
        </mxCell>
        <mxCell id="dm8Ctu_rhWURjPSK8A-L-42" value="" style="rounded=0;whiteSpace=wrap;html=1;sketch=0;fontFamily=Tahoma;fontSize=20;strokeColor=#DDA15E;strokeWidth=1;fillColor=#BC6C25;rotation=90;fontColor=#FEFAE0;" parent="1" vertex="1">
          <mxGeometry x="1452" y="941" width="232" height="60" as="geometry" />
        </mxCell>
        <mxCell id="dm8Ctu_rhWURjPSK8A-L-43" value="&lt;font style=&quot;font-size: 27px;&quot;&gt;METAL LINE&lt;/font&gt;" style="text;html=1;resizable=0;autosize=1;align=center;verticalAlign=middle;points=[];fillColor=none;strokeColor=none;rounded=0;sketch=0;fontSize=20;fontColor=#FEFAE0;horizontal=0;fontStyle=1;fontFamily=Tahoma;" parent="1" vertex="1">
          <mxGeometry x="1538" y="903" width="60" height="180" as="geometry" />
        </mxCell>
        <mxCell id="dm8Ctu_rhWURjPSK8A-L-44" value="" style="endArrow=classic;html=1;rounded=1;sketch=0;fontFamily=Tahoma;fontSize=20;fontColor=#FEFAE0;strokeColor=#FFFF66;strokeWidth=3;curved=0;labelBackgroundColor=#283618;" parent="1" edge="1">
          <mxGeometry width="50" height="50" relative="1" as="geometry">
            <mxPoint x="1568" y="900" as="sourcePoint" />
            <mxPoint x="1568.3999999999996" y="861.94" as="targetPoint" />
            <Array as="points">
              <mxPoint x="1567.6" y="905" />
            </Array>
          </mxGeometry>
        </mxCell>
        <mxCell id="dm8Ctu_rhWURjPSK8A-L-47" value="LINE 3" style="text;html=1;resizable=0;autosize=1;align=center;verticalAlign=middle;points=[];fillColor=none;strokeColor=none;rounded=0;sketch=0;fontFamily=Tahoma;fontSize=34;fontColor=#FEFAE0;fontStyle=1" parent="1" vertex="1">
          <mxGeometry x="1579" y="1093" width="140" height="50" as="geometry" />
        </mxCell>
        <mxCell id="qikdHrj_i0NyGAvCjt---10" style="edgeStyle=orthogonalEdgeStyle;rounded=0;orthogonalLoop=1;jettySize=auto;html=1;entryX=1;entryY=0.25;entryDx=0;entryDy=0;fontSize=50;strokeColor=#DDA15E;strokeWidth=5;labelBackgroundColor=#283618;fontColor=#FEFAE0;" edge="1" parent="1" source="dm8Ctu_rhWURjPSK8A-L-48" target="qikdHrj_i0NyGAvCjt---5">
          <mxGeometry relative="1" as="geometry" />
        </mxCell>
        <mxCell id="dm8Ctu_rhWURjPSK8A-L-48" value="" style="rounded=0;whiteSpace=wrap;html=1;sketch=0;fontFamily=Tahoma;fontSize=34;fontColor=#FEFAE0;strokeColor=#DDA15E;strokeWidth=5;fillColor=none;" parent="1" vertex="1">
          <mxGeometry x="1198" y="673" width="220" height="80" as="geometry" />
        </mxCell>
        <mxCell id="qikdHrj_i0NyGAvCjt---11" style="edgeStyle=orthogonalEdgeStyle;rounded=0;orthogonalLoop=1;jettySize=auto;html=1;entryX=1;entryY=0.75;entryDx=0;entryDy=0;fontSize=50;strokeColor=#DDA15E;strokeWidth=5;labelBackgroundColor=#283618;fontColor=#FEFAE0;" edge="1" parent="1" source="dm8Ctu_rhWURjPSK8A-L-49" target="qikdHrj_i0NyGAvCjt---5">
          <mxGeometry relative="1" as="geometry" />
        </mxCell>
        <mxCell id="dm8Ctu_rhWURjPSK8A-L-49" value="" style="rounded=0;whiteSpace=wrap;html=1;sketch=0;fontFamily=Tahoma;fontSize=34;fontColor=#FEFAE0;strokeColor=#DDA15E;strokeWidth=5;fillColor=none;" parent="1" vertex="1">
          <mxGeometry x="1198" y="853" width="220" height="80" as="geometry" />
        </mxCell>
        <mxCell id="dm8Ctu_rhWURjPSK8A-L-50" value="LINE 1" style="text;html=1;resizable=0;autosize=1;align=center;verticalAlign=middle;points=[];fillColor=none;strokeColor=none;rounded=0;sketch=0;fontFamily=Tahoma;fontSize=34;fontColor=#FEFAE0;fontStyle=1" parent="1" vertex="1">
          <mxGeometry x="1238" y="688" width="140" height="50" as="geometry" />
        </mxCell>
        <mxCell id="dm8Ctu_rhWURjPSK8A-L-51" value="LINE 2" style="text;html=1;resizable=0;autosize=1;align=center;verticalAlign=middle;points=[];fillColor=none;strokeColor=none;rounded=0;sketch=0;fontFamily=Tahoma;fontSize=34;fontColor=#FEFAE0;fontStyle=1" parent="1" vertex="1">
          <mxGeometry x="1238" y="868" width="140" height="50" as="geometry" />
        </mxCell>
        <mxCell id="dm8Ctu_rhWURjPSK8A-L-53" value="BODY SHOP" style="text;html=1;resizable=0;autosize=1;align=center;verticalAlign=middle;points=[];fillColor=none;strokeColor=none;rounded=0;sketch=0;fontFamily=Tahoma;fontSize=34;fontColor=#FFFF66;fontStyle=1" parent="1" vertex="1">
          <mxGeometry x="1343" y="533" width="230" height="50" as="geometry" />
        </mxCell>
        <mxCell id="dm8Ctu_rhWURjPSK8A-L-55" value="STAMPING SHOP" style="text;html=1;resizable=0;autosize=1;align=center;verticalAlign=middle;points=[];fillColor=none;strokeColor=none;rounded=0;sketch=0;fontFamily=Tahoma;fontSize=34;fontColor=#FFFF66;fontStyle=1;horizontal=0;" parent="1" vertex="1">
          <mxGeometry x="1868" y="458" width="60" height="310" as="geometry" />
        </mxCell>
        <mxCell id="qikdHrj_i0NyGAvCjt---16" style="edgeStyle=orthogonalEdgeStyle;rounded=0;orthogonalLoop=1;jettySize=auto;html=1;entryX=1;entryY=0.5;entryDx=0;entryDy=0;fontSize=50;strokeColor=#DDA15E;strokeWidth=5;exitX=0.026;exitY=0.185;exitDx=0;exitDy=0;exitPerimeter=0;labelBackgroundColor=#283618;fontColor=#FEFAE0;" edge="1" parent="1" source="qikdHrj_i0NyGAvCjt---5" target="qikdHrj_i0NyGAvCjt---12">
          <mxGeometry relative="1" as="geometry" />
        </mxCell>
        <mxCell id="qikdHrj_i0NyGAvCjt---18" style="edgeStyle=orthogonalEdgeStyle;rounded=0;orthogonalLoop=1;jettySize=auto;html=1;entryX=1;entryY=0.5;entryDx=0;entryDy=0;fontSize=50;strokeColor=#DDA15E;strokeWidth=5;labelBackgroundColor=#283618;fontColor=#FEFAE0;" edge="1" parent="1" target="qikdHrj_i0NyGAvCjt---14">
          <mxGeometry relative="1" as="geometry">
            <mxPoint x="818" y="873" as="sourcePoint" />
          </mxGeometry>
        </mxCell>
        <mxCell id="qikdHrj_i0NyGAvCjt---5" value="&lt;font style=&quot;font-size: 50px;&quot;&gt;&lt;b&gt;PAINT &lt;br&gt;SHOP&lt;/b&gt;&lt;/font&gt;" style="whiteSpace=wrap;html=1;aspect=fixed;fillColor=#BC6C25;strokeColor=#DDA15E;fontColor=#FEFAE0;" vertex="1" parent="1">
          <mxGeometry x="812" y="688" width="230" height="230" as="geometry" />
        </mxCell>
        <mxCell id="qikdHrj_i0NyGAvCjt---12" value="" style="rounded=0;whiteSpace=wrap;html=1;sketch=0;fontFamily=Tahoma;fontSize=34;fontColor=#FEFAE0;strokeColor=#DDA15E;strokeWidth=5;fillColor=none;" vertex="1" parent="1">
          <mxGeometry x="468" y="677.5" width="220" height="105" as="geometry" />
        </mxCell>
        <mxCell id="qikdHrj_i0NyGAvCjt---13" value="LINE 1&lt;br&gt;(TRIM)" style="text;html=1;resizable=0;autosize=1;align=center;verticalAlign=middle;points=[];fillColor=none;strokeColor=none;rounded=0;sketch=0;fontFamily=Tahoma;fontSize=34;fontColor=#FEFAE0;fontStyle=1" vertex="1" parent="1">
          <mxGeometry x="503" y="678" width="150" height="100" as="geometry" />
        </mxCell>
        <mxCell id="qikdHrj_i0NyGAvCjt---14" value="" style="rounded=0;whiteSpace=wrap;html=1;sketch=0;fontFamily=Tahoma;fontSize=34;fontColor=#FEFAE0;strokeColor=#DDA15E;strokeWidth=5;fillColor=none;" vertex="1" parent="1">
          <mxGeometry x="469" y="823" width="219" height="100" as="geometry" />
        </mxCell>
        <mxCell id="qikdHrj_i0NyGAvCjt---15" value="LINE 2&lt;br&gt;(TRIM)" style="text;html=1;resizable=0;autosize=1;align=center;verticalAlign=middle;points=[];fillColor=none;strokeColor=none;rounded=0;sketch=0;fontFamily=Tahoma;fontSize=34;fontColor=#FEFAE0;fontStyle=1" vertex="1" parent="1">
          <mxGeometry x="504" y="821" width="150" height="100" as="geometry" />
        </mxCell>
        <mxCell id="qikdHrj_i0NyGAvCjt---19" value="&lt;font size=&quot;1&quot; color=&quot;#ffffff&quot;&gt;&lt;b style=&quot;font-size: 34px;&quot;&gt;TRIM A,B,U/F,CT, PF&lt;/b&gt;&lt;/font&gt;" style="text;html=1;resizable=0;autosize=1;align=center;verticalAlign=middle;points=[];fillColor=none;strokeColor=none;rounded=0;fontSize=50;fontColor=#FEFAE0;" vertex="1" parent="1">
          <mxGeometry x="403" y="933" width="350" height="70" as="geometry" />
        </mxCell>
        <mxCell id="qikdHrj_i0NyGAvCjt---24" style="edgeStyle=orthogonalEdgeStyle;rounded=0;orthogonalLoop=1;jettySize=auto;html=1;fontSize=39;fontColor=#FEFAE0;strokeWidth=3;dashed=1;strokeColor=#FFFF66;labelBackgroundColor=#283618;" edge="1" parent="1" source="qikdHrj_i0NyGAvCjt---20" target="qikdHrj_i0NyGAvCjt---12">
          <mxGeometry relative="1" as="geometry" />
        </mxCell>
        <mxCell id="qikdHrj_i0NyGAvCjt---25" style="edgeStyle=orthogonalEdgeStyle;rounded=0;orthogonalLoop=1;jettySize=auto;html=1;fontSize=39;fontColor=#FEFAE0;strokeWidth=3;dashed=1;strokeColor=#FFFF66;labelBackgroundColor=#283618;" edge="1" parent="1" source="qikdHrj_i0NyGAvCjt---20" target="qikdHrj_i0NyGAvCjt---15">
          <mxGeometry relative="1" as="geometry">
            <Array as="points">
              <mxPoint x="353" y="803" />
              <mxPoint x="579" y="803" />
            </Array>
          </mxGeometry>
        </mxCell>
        <mxCell id="qikdHrj_i0NyGAvCjt---20" value="&lt;b&gt;&lt;font style=&quot;font-size: 39px;&quot;&gt;POWER TRAIN&lt;/font&gt;&lt;/b&gt;" style="rounded=1;whiteSpace=wrap;html=1;fontSize=34;fillColor=#BC6C25;strokeColor=#DDA15E;fontColor=#FEFAE0;" vertex="1" parent="1">
          <mxGeometry x="238" y="403" width="230" height="180" as="geometry" />
        </mxCell>
        <mxCell id="qikdHrj_i0NyGAvCjt---37" style="edgeStyle=orthogonalEdgeStyle;curved=0;rounded=1;sketch=0;orthogonalLoop=1;jettySize=auto;html=1;entryX=0;entryY=0.5;entryDx=0;entryDy=0;fontColor=#FF9933;strokeColor=#DDA15E;fillColor=#BC6C25;exitX=0;exitY=0.75;exitDx=0;exitDy=0;strokeWidth=5;" edge="1" parent="1" source="qikdHrj_i0NyGAvCjt---27" target="qikdHrj_i0NyGAvCjt---34">
          <mxGeometry relative="1" as="geometry">
            <Array as="points">
              <mxPoint x="118" y="918" />
              <mxPoint x="118" y="1298" />
            </Array>
          </mxGeometry>
        </mxCell>
        <mxCell id="qikdHrj_i0NyGAvCjt---27" value="" style="rounded=0;whiteSpace=wrap;html=1;dashed=1;dashPattern=1 2;fontSize=39;fillColor=none;strokeColor=#FFFFFF;strokeWidth=5;fontColor=#FEFAE0;" vertex="1" parent="1">
          <mxGeometry x="398" y="603" width="380" height="420" as="geometry" />
        </mxCell>
        <mxCell id="qikdHrj_i0NyGAvCjt---29" value="TRIM AND CHESIS" style="text;html=1;resizable=0;autosize=1;align=center;verticalAlign=middle;points=[];fillColor=none;strokeColor=none;rounded=0;sketch=0;fontFamily=Tahoma;fontSize=34;fontColor=#FFFF66;fontStyle=1" vertex="1" parent="1">
          <mxGeometry x="413" y="1033" width="340" height="50" as="geometry" />
        </mxCell>
        <mxCell id="qikdHrj_i0NyGAvCjt---39" style="edgeStyle=orthogonalEdgeStyle;curved=0;rounded=1;sketch=0;orthogonalLoop=1;jettySize=auto;html=1;entryX=0;entryY=0.5;entryDx=0;entryDy=0;fontColor=#FF9933;strokeColor=#DDA15E;strokeWidth=5;fillColor=#BC6C25;" edge="1" parent="1" source="qikdHrj_i0NyGAvCjt---34" target="qikdHrj_i0NyGAvCjt---35">
          <mxGeometry relative="1" as="geometry" />
        </mxCell>
        <mxCell id="qikdHrj_i0NyGAvCjt---34" value="&lt;font color=&quot;#ffffff&quot; style=&quot;font-size: 39px;&quot;&gt;&lt;b&gt;SHOWER TEST&lt;/b&gt;&lt;/font&gt;" style="rounded=1;whiteSpace=wrap;html=1;sketch=0;fontColor=#FFFF66;strokeColor=#FFFFFF;fillColor=#BC6C25;" vertex="1" parent="1">
          <mxGeometry x="298" y="1233" width="230" height="130" as="geometry" />
        </mxCell>
        <mxCell id="qikdHrj_i0NyGAvCjt---42" style="edgeStyle=orthogonalEdgeStyle;curved=0;rounded=1;sketch=0;orthogonalLoop=1;jettySize=auto;html=1;entryX=0;entryY=0.5;entryDx=0;entryDy=0;fontColor=#FF9933;strokeColor=#DDA15E;strokeWidth=5;fillColor=#BC6C25;" edge="1" parent="1" source="qikdHrj_i0NyGAvCjt---35" target="qikdHrj_i0NyGAvCjt---40">
          <mxGeometry relative="1" as="geometry" />
        </mxCell>
        <mxCell id="qikdHrj_i0NyGAvCjt---35" value="&lt;b&gt;&lt;font color=&quot;#ffffff&quot; style=&quot;font-size: 38px;&quot;&gt;DYNAMIC TEST&lt;/font&gt;&lt;/b&gt;" style="rounded=1;whiteSpace=wrap;html=1;sketch=0;fontColor=#FFFF66;strokeColor=#FFFFFF;fillColor=#BC6C25;" vertex="1" parent="1">
          <mxGeometry x="654" y="1233" width="230" height="130" as="geometry" />
        </mxCell>
        <mxCell id="qikdHrj_i0NyGAvCjt---43" style="edgeStyle=orthogonalEdgeStyle;curved=0;rounded=1;sketch=0;orthogonalLoop=1;jettySize=auto;html=1;entryX=0;entryY=0.5;entryDx=0;entryDy=0;fontColor=#FF9933;strokeColor=#DDA15E;strokeWidth=5;fillColor=#BC6C25;" edge="1" parent="1" source="qikdHrj_i0NyGAvCjt---40" target="qikdHrj_i0NyGAvCjt---41">
          <mxGeometry relative="1" as="geometry" />
        </mxCell>
        <mxCell id="qikdHrj_i0NyGAvCjt---40" value="&lt;font color=&quot;#ffffff&quot; style=&quot;font-size: 48px;&quot;&gt;&lt;b&gt;VQA&amp;nbsp;&lt;/b&gt;&lt;/font&gt;" style="rounded=1;whiteSpace=wrap;html=1;sketch=0;fontColor=#FFFF66;strokeColor=#FFFFFF;fillColor=#BC6C25;" vertex="1" parent="1">
          <mxGeometry x="1008" y="1233" width="230" height="130" as="geometry" />
        </mxCell>
        <mxCell id="qikdHrj_i0NyGAvCjt---41" value="&lt;font color=&quot;#ffffff&quot; style=&quot;font-size: 46px;&quot;&gt;&lt;b&gt;YARD&lt;/b&gt;&lt;/font&gt;" style="rounded=1;whiteSpace=wrap;html=1;sketch=0;fontColor=#FFFF66;strokeColor=#FFFFFF;fillColor=#BC6C25;" vertex="1" parent="1">
          <mxGeometry x="1363" y="1233" width="230" height="130" as="geometry" />
        </mxCell>
      </root>
    </mxGraphModel>
  </diagram>
</mxfile>
